<?xml version="1.0" encoding="UTF-8"?>
<svg width="2196px" height="535px" viewBox="0 0 2196 535" version="1.1" xmlns="http://www.w3.org/2000/svg" xmlns:xlink="http://www.w3.org/1999/xlink">
    <!-- Generator: Sketch 61 (89581) - https://sketch.com -->
    <title>Logo EN website</title>
    <desc>Created with Sketch.</desc>
    <g id="Logo-EN-website" stroke="none" stroke-width="1" fill="none" fill-rule="evenodd">
        <path d="M659.702,263.551 L676.484,263.551 C679.574,263.551 682.691,263.311 685.833,262.829 C688.975,262.35 691.8,261.421 694.304,260.035 C696.808,258.649 698.86,256.758 700.458,254.36 C702.057,251.961 702.854,248.844 702.854,245.009 C702.854,241.283 702.082,238.246 700.538,235.901 C698.992,233.558 696.995,231.718 694.543,230.386 C692.092,229.054 689.322,228.147 686.234,227.668 C683.143,227.189 680,226.95 676.804,226.95 L659.702,226.95 L659.702,263.551 Z M643.88,217.519 C643.88,214.86 645.211,213.524 647.875,213.524 L678.402,213.524 C683.517,213.524 688.524,214.003 693.426,214.965 C698.326,215.923 702.641,217.599 706.371,219.998 C710.099,222.396 713.109,225.618 715.402,229.667 C717.692,233.717 718.839,238.834 718.839,245.009 C718.839,250.978 717.692,256.015 715.402,260.115 C713.109,264.215 710.072,267.521 706.291,270.024 C702.508,272.528 698.142,274.313 693.187,275.376 C688.232,276.443 683.038,276.977 677.604,276.977 L659.702,276.977 L659.702,322.686 C659.702,325.349 658.369,326.681 655.707,326.681 L647.875,326.681 C645.211,326.681 643.88,325.349 643.88,322.686 L643.88,217.519 L643.88,217.519 Z" id="Fill-1" fill="#D8206A"></path>
        <path d="M754.795,263.072 L773.016,263.072 C775.997,263.072 779.061,262.829 782.205,262.35 C785.347,261.871 788.2,260.968 790.756,259.636 C793.314,258.304 795.417,256.439 797.07,254.041 C798.721,251.642 799.546,248.58 799.546,244.849 C799.546,241.228 798.8,238.271 797.309,235.981 C795.816,233.688 793.873,231.877 791.477,230.545 C789.078,229.214 786.362,228.281 783.325,227.748 C780.288,227.219 777.223,226.95 774.133,226.95 L754.795,226.95 L754.795,263.072 Z M754.795,322.686 C754.795,325.349 753.461,326.681 750.8,326.681 L742.968,326.681 C740.305,326.681 738.973,325.349 738.973,322.686 L738.973,217.519 C738.973,214.86 740.305,213.524 742.968,213.524 L775.253,213.524 C780.367,213.524 785.322,214.032 790.117,215.045 C794.913,216.057 799.199,217.758 802.982,220.157 C806.763,222.556 809.8,225.752 812.094,229.748 C814.383,233.742 815.53,238.775 815.53,244.849 C815.53,253.268 812.944,260.01 807.777,265.067 C802.608,270.13 796.03,273.355 788.04,274.737 L816.009,320.606 C817.179,322.421 817.448,323.883 816.807,325.004 C816.168,326.122 814.782,326.681 812.652,326.681 L802.902,326.681 C801.304,326.681 800.13,325.987 799.386,324.601 L771.737,276.334 L754.795,276.334 L754.795,322.686 L754.795,322.686 Z" id="Fill-2" fill="#D8206A"></path>
        <path d="M860.367,284.967 L902.719,284.967 L881.623,231.902 L860.367,284.967 Z M844.383,324.122 C844.168,324.979 843.717,325.617 843.024,326.042 C842.331,326.466 841.56,326.681 840.707,326.681 L831.917,326.681 C830.104,326.681 828.853,326.177 828.162,325.164 C827.466,324.151 827.494,322.79 828.241,321.085 L873.79,215.923 C874.112,215.179 874.616,214.591 875.309,214.163 C876.002,213.738 876.72,213.524 877.466,213.524 L886.737,213.524 C887.48,213.524 888.201,213.738 888.894,214.163 C889.585,214.591 890.093,215.179 890.413,215.923 L935.483,321.085 C936.229,322.79 936.256,324.151 935.563,325.164 C934.87,326.177 933.618,326.681 931.807,326.681 L922.698,326.681 C921.843,326.681 921.072,326.466 920.379,326.042 C919.686,325.617 919.234,325.029 919.022,324.281 L908.474,298.871 L854.771,298.871 L844.383,324.122 L844.383,324.122 Z" id="Fill-3" fill="#D8206A"></path>
        <path d="M1496.21,232.545 C1495.15,232.545 1494.03,232.062 1492.86,231.104 C1490.19,228.655 1487.24,226.845 1483.99,225.673 C1480.74,224.5 1477.35,223.913 1473.84,223.913 C1471.17,223.913 1468.51,224.287 1465.85,225.03 C1463.18,225.778 1460.81,226.924 1458.73,228.466 C1456.66,230.012 1454.98,231.932 1453.7,234.221 C1452.42,236.515 1451.78,239.204 1451.78,242.291 C1451.78,246.874 1453.14,250.419 1455.86,252.923 C1458.57,255.427 1461.96,257.422 1466.01,258.914 L1474.96,262.11 C1479.32,263.392 1483.51,264.828 1487.5,266.424 C1491.5,268.025 1495.01,270.079 1498.05,272.578 C1501.09,275.087 1503.54,278.148 1505.4,281.77 C1507.27,285.395 1508.2,289.869 1508.2,295.195 C1508.2,300.736 1507.16,305.664 1505.08,309.979 C1503.01,314.292 1500.21,317.888 1496.69,320.766 C1493.18,323.644 1489.05,325.827 1484.31,327.319 C1479.56,328.811 1474.48,329.558 1469.04,329.558 C1462.65,329.558 1456.39,328.44 1450.26,326.201 C1444.13,323.963 1438.84,320.556 1434.36,315.973 C1433.51,315.12 1433.13,314.213 1433.24,313.255 C1433.35,312.297 1433.88,311.394 1434.84,310.537 L1440.75,305.584 C1441.5,304.841 1442.41,304.467 1443.47,304.467 C1444.75,304.467 1445.87,305.051 1446.83,306.223 C1449.71,309.314 1453.11,311.713 1457.06,313.414 C1461,315.12 1465.1,315.973 1469.36,315.973 C1472.24,315.973 1475.04,315.573 1477.75,314.775 C1480.47,313.973 1482.89,312.751 1485.02,311.096 C1487.16,309.449 1488.86,307.42 1490.14,305.025 C1491.42,302.627 1492.06,299.829 1492.06,296.632 C1492.06,291.415 1490.43,287.42 1487.18,284.647 C1483.93,281.879 1480.07,279.69 1475.6,278.094 L1465.21,274.737 C1461.16,273.565 1457.35,272.154 1453.78,270.503 C1450.21,268.853 1447.09,266.773 1444.43,264.27 C1441.77,261.766 1439.66,258.783 1438.12,255.317 C1436.57,251.856 1435.8,247.727 1435.8,242.934 C1435.8,237.498 1436.89,232.785 1439.08,228.79 C1441.26,224.791 1444.13,221.434 1447.71,218.72 C1451.28,216.002 1455.4,213.978 1460.09,212.646 C1464.78,211.314 1469.63,210.646 1474.64,210.646 C1479.96,210.646 1485.24,211.474 1490.46,213.125 C1495.68,214.78 1500.31,217.359 1504.37,220.875 C1505.22,221.732 1505.64,222.636 1505.64,223.593 C1505.64,224.551 1505.22,225.458 1504.37,226.311 L1499.25,231.264 C1498.4,232.121 1497.39,232.545 1496.21,232.545" id="Fill-4" fill="#D8206A"></path>
        <path d="M1581.7,268.344 C1580.53,268.344 1579.35,267.865 1578.18,266.908 C1576.16,265.097 1573.89,263.736 1571.39,262.829 C1568.89,261.925 1566.3,261.472 1563.64,261.472 C1559.8,261.472 1556.37,262.19 1553.33,263.631 C1550.29,265.067 1547.71,267.042 1545.58,269.541 C1543.45,272.049 1541.79,274.952 1540.63,278.254 C1539.45,281.556 1538.87,285.071 1538.87,288.802 C1538.87,292.427 1539.43,295.889 1540.54,299.19 C1541.66,302.492 1543.29,305.399 1545.42,307.903 C1547.55,310.406 1550.16,312.402 1553.25,313.894 C1556.34,315.389 1559.86,316.132 1563.8,316.132 C1566.57,316.132 1569.29,315.708 1571.95,314.855 C1574.61,314.002 1577.01,312.671 1579.14,310.856 C1580,310.008 1581.06,309.579 1582.34,309.579 C1583.4,309.579 1584.36,309.953 1585.22,310.696 L1589.21,314.372 C1590.06,315.12 1590.52,315.998 1590.57,317.01 C1590.62,318.026 1590.22,318.904 1589.37,319.648 C1585.85,322.95 1581.91,325.298 1577.54,326.681 C1573.17,328.063 1568.59,328.76 1563.8,328.76 C1558.05,328.76 1552.66,327.798 1547.66,325.882 C1542.65,323.963 1538.33,321.274 1534.71,317.809 C1531.09,314.347 1528.24,310.167 1526.16,305.265 C1524.08,300.362 1523.04,294.876 1523.04,288.802 C1523.04,282.941 1524.03,277.561 1526,272.658 C1527.97,267.76 1530.74,263.551 1534.31,260.035 C1537.88,256.519 1542.14,253.776 1547.1,251.802 C1552.05,249.832 1557.51,248.844 1563.48,248.844 C1567.96,248.844 1572.56,249.646 1577.3,251.243 C1582.04,252.843 1586.07,255.238 1589.37,258.435 C1590.22,259.287 1590.57,260.195 1590.41,261.152 C1590.25,262.11 1589.74,262.967 1588.89,263.711 L1584.58,267.386 C1583.62,268.025 1582.66,268.344 1581.7,268.344" id="Fill-5" fill="#D8206A"></path>
        <path d="M1618.14,326.681 L1611.11,326.681 C1608.44,326.681 1607.11,325.349 1607.11,322.686 L1607.11,254.918 C1607.11,252.255 1608.44,250.923 1611.11,250.923 L1618.14,250.923 C1620.8,250.923 1622.13,252.255 1622.13,254.918 L1622.13,322.686 C1622.13,325.349 1620.8,326.681 1618.14,326.681 Z M1621.73,230.466 C1619.76,232.281 1617.39,233.184 1614.62,233.184 C1611.85,233.184 1609.51,232.281 1607.59,230.466 C1605.67,228.655 1604.71,226.366 1604.71,223.593 C1604.71,220.825 1605.67,218.506 1607.59,216.641 C1609.51,214.78 1611.85,213.843 1614.62,213.843 C1617.39,213.843 1619.76,214.78 1621.73,216.641 C1623.7,218.506 1624.69,220.825 1624.69,223.593 C1624.69,226.366 1623.7,228.655 1621.73,230.466 L1621.73,230.466 Z" id="Fill-6" fill="#D8206A"></path>
        <path d="M1703.8,282.089 C1703.59,275.695 1701.67,270.528 1698.05,266.588 C1694.42,262.644 1689.26,260.673 1682.54,260.673 C1679.56,260.673 1676.68,261.207 1673.91,262.27 C1671.14,263.337 1668.67,264.828 1666.48,266.748 C1664.3,268.663 1662.51,270.928 1661.13,273.541 C1659.74,276.149 1658.94,279.002 1658.73,282.089 L1703.8,282.089 Z M1718.99,291.999 C1718.77,292.852 1718.29,293.275 1717.55,293.275 L1658.73,293.275 C1658.84,296.582 1659.56,299.619 1660.89,302.388 C1662.22,305.16 1664.01,307.579 1666.24,309.659 C1668.48,311.738 1671.06,313.364 1673.99,314.531 C1676.92,315.708 1680.04,316.292 1683.34,316.292 C1691.01,316.292 1697.46,313.574 1702.68,308.143 C1703.64,307.075 1704.76,306.542 1706.04,306.542 C1707.1,306.542 1708.01,306.861 1708.76,307.5 L1712.91,310.856 C1713.76,311.604 1714.27,312.481 1714.43,313.494 C1714.59,314.511 1714.3,315.439 1713.55,316.292 C1709.5,320.661 1704.92,323.832 1699.8,325.803 C1694.69,327.772 1689.2,328.76 1683.34,328.76 C1677.59,328.76 1672.26,327.798 1667.36,325.882 C1662.46,323.963 1658.25,321.274 1654.74,317.809 C1651.22,314.347 1648.45,310.167 1646.42,305.265 C1644.4,300.362 1643.39,294.931 1643.39,288.962 C1643.39,283.315 1644.32,278.04 1646.18,273.138 C1648.05,268.239 1650.71,264.005 1654.18,260.434 C1657.64,256.863 1661.77,254.041 1666.56,251.961 C1671.36,249.886 1676.68,248.844 1682.54,248.844 C1688.4,248.844 1693.6,249.806 1698.13,251.722 C1702.66,253.642 1706.46,256.334 1709.55,259.795 C1712.64,263.257 1714.99,267.412 1716.59,272.26 C1718.19,277.111 1718.99,282.408 1718.99,288.163 L1718.99,291.999 L1718.99,291.999 Z" id="Fill-7" fill="#D8206A"></path>
        <path d="M1752.56,254.121 L1752.72,257.317 C1752.82,258.489 1752.93,259.582 1753.04,260.594 C1753.14,261.606 1753.19,262.539 1753.19,263.392 C1754.26,261.152 1755.7,259.128 1757.51,257.317 C1759.32,255.507 1761.35,253.986 1763.58,252.764 C1765.82,251.537 1768.19,250.579 1770.7,249.886 C1773.2,249.193 1775.62,248.844 1777.97,248.844 C1782.55,248.844 1786.6,249.622 1790.11,251.163 C1793.63,252.709 1796.59,254.839 1798.99,257.557 C1801.38,260.274 1803.19,263.526 1804.42,267.307 C1805.64,271.087 1806.26,275.217 1806.26,279.69 L1806.26,322.686 C1806.26,325.349 1804.92,326.681 1802.26,326.681 L1795.23,326.681 C1792.56,326.681 1791.23,325.349 1791.23,322.686 L1791.23,284.647 C1791.23,281.77 1791.02,278.922 1790.59,276.095 C1790.17,273.276 1789.31,270.798 1788.04,268.663 C1786.76,266.534 1785,264.803 1782.76,263.471 C1780.52,262.14 1777.59,261.472 1773.97,261.472 C1770.46,261.472 1767.42,262.19 1764.86,263.631 C1762.3,265.067 1760.2,266.962 1758.55,269.302 C1756.9,271.65 1755.67,274.313 1754.87,277.296 C1754.07,280.278 1753.67,283.315 1753.67,286.403 L1753.67,322.686 C1753.67,325.349 1752.34,326.681 1749.68,326.681 L1742.65,326.681 C1739.98,326.681 1738.65,325.349 1738.65,322.686 L1738.65,267.227 L1738.49,259.393 C1738.49,258.649 1738.46,257.931 1738.41,257.237 C1738.36,256.544 1738.33,255.826 1738.33,255.078 C1738.22,253.906 1738.54,252.923 1739.29,252.121 C1740.03,251.323 1741.05,250.923 1742.33,250.923 L1749.04,250.923 C1751.17,250.923 1752.34,251.991 1752.56,254.121" id="Fill-8" fill="#D8206A"></path>
        <path d="M1883.23,268.344 C1882.06,268.344 1880.89,267.865 1879.72,266.908 C1877.69,265.097 1875.43,263.736 1872.93,262.829 C1870.42,261.925 1867.84,261.472 1865.17,261.472 C1861.34,261.472 1857.9,262.19 1854.86,263.631 C1851.83,265.067 1849.24,267.042 1847.11,269.541 C1844.98,272.049 1843.33,274.952 1842.16,278.254 C1840.99,281.556 1840.4,285.071 1840.4,288.802 C1840.4,292.427 1840.96,295.889 1842.08,299.19 C1843.2,302.492 1844.82,305.399 1846.95,307.903 C1849.08,310.406 1851.69,312.402 1854.78,313.894 C1857.87,315.389 1861.39,316.132 1865.33,316.132 C1868.1,316.132 1870.82,315.708 1873.48,314.855 C1876.15,314.002 1878.54,312.671 1880.68,310.856 C1881.53,310.008 1882.59,309.579 1883.87,309.579 C1884.94,309.579 1885.9,309.953 1886.75,310.696 L1890.75,314.372 C1891.6,315.12 1892.05,315.998 1892.1,317.01 C1892.16,318.026 1891.76,318.904 1890.91,319.648 C1887.39,322.95 1883.45,325.298 1879.08,326.681 C1874.71,328.063 1870.13,328.76 1865.33,328.76 C1859.58,328.76 1854.2,327.798 1849.19,325.882 C1844.18,323.963 1839.87,321.274 1836.24,317.809 C1832.62,314.347 1829.77,310.167 1827.69,305.265 C1825.62,300.362 1824.58,294.876 1824.58,288.802 C1824.58,282.941 1825.56,277.561 1827.53,272.658 C1829.5,267.76 1832.27,263.551 1835.85,260.035 C1839.41,256.519 1843.68,253.776 1848.63,251.802 C1853.59,249.832 1859.05,248.844 1865.01,248.844 C1869.49,248.844 1874.1,249.646 1878.84,251.243 C1883.58,252.843 1887.6,255.238 1890.91,258.435 C1891.76,259.287 1892.1,260.195 1891.94,261.152 C1891.79,262.11 1891.28,262.967 1890.43,263.711 L1886.11,267.386 C1885.15,268.025 1884.19,268.344 1883.23,268.344" id="Fill-9" fill="#D8206A"></path>
        <path d="M1963.94,282.089 C1963.73,275.695 1961.81,270.528 1958.19,266.588 C1954.57,262.644 1949.4,260.673 1942.69,260.673 C1939.7,260.673 1936.83,261.207 1934.05,262.27 C1931.29,263.337 1928.81,264.828 1926.62,266.748 C1924.44,268.663 1922.65,270.928 1921.27,273.541 C1919.88,276.149 1919.09,279.002 1918.87,282.089 L1963.94,282.089 Z M1979.13,291.999 C1978.91,292.852 1978.43,293.275 1977.69,293.275 L1918.87,293.275 C1918.98,296.582 1919.7,299.619 1921.03,302.388 C1922.36,305.16 1924.15,307.579 1926.38,309.659 C1928.62,311.738 1931.21,313.364 1934.13,314.531 C1937.07,315.708 1940.18,316.292 1943.49,316.292 C1951.16,316.292 1957.6,313.574 1962.82,308.143 C1963.78,307.075 1964.9,306.542 1966.18,306.542 C1967.25,306.542 1968.15,306.861 1968.9,307.5 L1973.05,310.856 C1973.91,311.604 1974.41,312.481 1974.57,313.494 C1974.73,314.511 1974.44,315.439 1973.69,316.292 C1969.64,320.661 1965.06,323.832 1959.95,325.803 C1954.83,327.772 1949.34,328.76 1943.49,328.76 C1937.73,328.76 1932.4,327.798 1927.5,325.882 C1922.6,323.963 1918.39,321.274 1914.88,317.809 C1911.36,314.347 1908.59,310.167 1906.57,305.265 C1904.54,300.362 1903.53,294.931 1903.53,288.962 C1903.53,283.315 1904.46,278.04 1906.33,273.138 C1908.19,268.239 1910.85,264.005 1914.32,260.434 C1917.78,256.863 1921.91,254.041 1926.7,251.961 C1931.5,249.886 1936.83,248.844 1942.69,248.844 C1948.55,248.844 1953.74,249.806 1958.27,251.722 C1962.8,253.642 1966.6,256.334 1969.7,259.795 C1972.79,263.257 1975.13,267.412 1976.73,272.26 C1978.33,277.111 1979.13,282.408 1979.13,288.163 L1979.13,291.999 L1979.13,291.999 Z" id="Fill-10" fill="#D8206A"></path>
        <path d="M2040.79,268.185 C2039.51,268.185 2038.33,267.651 2037.27,266.588 C2033.33,262.644 2028.43,260.673 2022.57,260.673 C2020.97,260.673 2019.34,260.833 2017.69,261.152 C2016.04,261.472 2014.55,262.03 2013.22,262.829 C2011.88,263.631 2010.77,264.644 2009.86,265.866 C2008.96,267.092 2008.5,268.663 2008.5,270.583 C2008.5,273.78 2009.94,276.124 2012.82,277.615 C2015.69,279.212 2020.01,280.652 2025.76,281.93 C2028.75,282.677 2031.76,283.556 2034.79,284.567 C2037.83,285.58 2040.55,286.941 2042.94,288.643 C2045.34,290.348 2047.31,292.452 2048.86,294.956 C2050.4,297.46 2051.18,300.577 2051.18,304.303 C2051.18,308.676 2050.35,312.402 2048.7,315.494 C2047.04,318.586 2044.83,321.114 2042.07,323.085 C2039.29,325.059 2036.1,326.495 2032.47,327.398 C2028.85,328.302 2025.01,328.76 2020.97,328.76 C2015.85,328.76 2010.82,327.878 2005.86,326.122 C2000.91,324.361 1996.62,321.673 1993,318.048 C1992.14,317.199 1991.77,316.292 1991.88,315.334 C1991.98,314.372 1992.46,313.469 1993.32,312.616 L1997.79,308.94 C1998.54,308.197 1999.44,307.823 2000.51,307.823 C2001.57,307.823 2002.75,308.356 2004.03,309.419 C2008.82,314.213 2014.58,316.611 2021.29,316.611 C2023.1,316.611 2024.88,316.451 2026.64,316.132 C2028.4,315.813 2030,315.229 2031.44,314.372 C2032.87,313.523 2034.05,312.377 2034.95,310.936 C2035.86,309.499 2036.31,307.718 2036.31,305.584 C2036.31,302.068 2034.66,299.459 2031.36,297.754 C2028.05,295.943 2023.1,294.343 2016.5,292.956 C2013.72,292.213 2011,291.36 2008.34,290.398 C2005.68,289.44 2003.31,288.163 2001.23,286.562 C1999.15,284.967 1997.5,282.996 1996.27,280.652 C1995.05,278.309 1994.44,275.431 1994.44,272.02 C1994.44,267.97 1995.24,264.509 1996.83,261.631 C1998.43,258.754 2000.56,256.359 2003.23,254.439 C2005.89,252.52 2008.96,251.113 2012.42,250.205 C2015.88,249.302 2019.42,248.844 2023.04,248.844 C2027.52,248.844 2032.08,249.622 2036.71,251.163 C2041.35,252.709 2045.21,255.187 2048.3,258.594 C2049.04,259.342 2049.36,260.195 2049.26,261.152 C2049.15,262.11 2048.67,262.967 2047.82,263.711 L2043.66,267.067 C2042.81,267.811 2041.85,268.185 2040.79,268.185" id="Fill-11" fill="#D8206A"></path>
        <path d="M951.146,217.519 C951.146,214.86 952.477,213.524 955.143,213.524 L967.289,213.524 C969.95,213.524 971.284,214.86 971.284,217.519 L971.284,259.233 L1024.19,259.233 L1024.19,217.519 C1024.19,214.86 1025.52,213.524 1028.18,213.524 L1040.33,213.524 C1042.99,213.524 1044.32,214.86 1044.32,217.519 L1044.32,322.686 C1044.32,325.349 1042.99,326.681 1040.33,326.681 L1028.18,326.681 C1025.52,326.681 1024.19,325.349 1024.19,322.686 L1024.19,276.494 L971.284,276.494 L971.284,322.686 C971.284,325.349 969.95,326.681 967.289,326.681 L955.143,326.681 C952.477,326.681 951.146,325.349 951.146,322.686 L951.146,217.519" id="Fill-12" fill="#D8206A"></path>
        <path d="M1081.46,280.652 L1120.78,280.652 C1120.78,275.007 1119.18,270.503 1115.98,267.147 C1112.79,263.79 1108.37,262.11 1102.72,262.11 C1096.96,262.11 1092.11,263.79 1088.17,267.147 C1084.23,270.503 1081.99,275.007 1081.46,280.652 Z M1139.96,289.281 L1139.96,293.436 L1139.16,294.397 L1081.46,294.397 C1081.89,299.829 1084.23,304.332 1088.49,307.903 C1092.75,311.474 1097.71,313.255 1103.36,313.255 C1110.92,313.255 1116.78,311.016 1120.94,306.542 C1122.22,305.479 1123.34,304.945 1124.29,304.945 C1125.25,304.945 1126.16,305.319 1127.01,306.062 L1133.4,311.176 C1135.64,312.885 1135.86,314.695 1134.04,316.611 C1126.69,324.819 1116.52,328.919 1103.52,328.919 C1091.48,328.919 1081.59,325.269 1073.87,317.968 C1066.14,310.671 1062.28,300.95 1062.28,288.802 C1062.28,276.977 1066.04,267.172 1073.55,259.393 C1081.06,251.617 1090.84,247.727 1102.88,247.727 C1114.71,247.727 1123.84,251.537 1130.29,259.153 C1136.73,266.773 1139.96,276.817 1139.96,289.281 L1139.96,289.281 Z" id="Fill-13" fill="#D8206A"></path>
        <path d="M1204.85,294.397 L1204.85,291.68 L1200.53,291.68 C1181.03,291.68 1171.28,295.943 1171.28,304.467 C1171.28,307.878 1172.61,310.327 1175.28,311.818 C1177.94,313.31 1181.08,314.053 1184.71,314.053 C1191.21,314.053 1196.19,312.377 1199.65,309.021 C1203.11,305.664 1204.85,300.787 1204.85,294.397 Z M1219.07,326.681 L1209,326.681 C1206.55,326.681 1205.22,325.403 1205.01,322.845 L1205.01,316.931 C1202.55,320.766 1199.12,323.673 1194.7,325.643 C1190.28,327.613 1185.67,328.601 1180.87,328.601 C1172.99,328.601 1166.22,326.521 1160.57,322.366 C1154.93,318.212 1152.11,312.352 1152.11,304.786 C1152.11,300.736 1152.96,297.191 1154.66,294.158 C1156.37,291.121 1158.79,288.697 1161.93,286.882 C1165.08,285.071 1168.27,283.585 1171.52,282.408 C1174.77,281.236 1178.69,280.413 1183.27,279.93 C1187.85,279.451 1191.61,279.132 1194.54,278.972 C1197.47,278.812 1200.9,278.732 1204.85,278.732 L1204.85,276.817 C1204.85,272.129 1203.17,268.613 1199.81,266.265 C1196.46,263.925 1192.27,262.749 1187.27,262.749 C1180.87,262.749 1174.96,264.723 1169.53,268.663 C1168.67,269.411 1167.71,269.781 1166.65,269.781 C1165.47,269.781 1164.41,269.252 1163.45,268.185 L1158.98,262.749 C1158.12,261.9 1157.75,260.968 1157.86,259.955 C1157.96,258.943 1158.5,258.115 1159.46,257.477 C1167.66,250.978 1177.46,247.727 1188.86,247.727 C1199.52,247.727 1207.88,250.419 1213.96,255.796 C1220.03,261.178 1223.07,269.252 1223.07,280.01 L1223.07,322.686 C1223.07,325.349 1221.73,326.681 1219.07,326.681 L1219.07,326.681 Z" id="Fill-14" fill="#D8206A"></path>
        <path d="M1244.08,209.849 C1244.08,207.185 1245.41,205.854 1248.07,205.854 L1259.26,205.854 C1261.92,205.854 1263.25,207.185 1263.25,209.849 L1263.25,322.686 C1263.25,325.349 1261.92,326.681 1259.26,326.681 L1248.07,326.681 C1245.41,326.681 1244.08,325.349 1244.08,322.686 L1244.08,209.849" id="Fill-15" fill="#D8206A"></path>
        <path d="M1282.87,265.307 C1280.21,265.307 1278.87,263.976 1278.87,261.312 L1278.87,253.961 C1278.87,251.297 1280.21,249.966 1282.87,249.966 L1292.3,249.966 L1292.3,239.737 C1292.3,238.031 1293.04,236.859 1294.54,236.221 L1305.41,230.625 C1306.26,230.201 1307.11,229.987 1307.96,229.987 C1310.09,229.987 1311.16,231.424 1311.16,234.301 L1311.16,249.966 L1326.34,249.966 C1329,249.966 1330.34,251.297 1330.34,253.961 L1330.34,261.312 C1330.34,263.976 1329,265.307 1326.34,265.307 L1311.16,265.307 L1311.16,300.95 C1311.16,304.891 1311.88,307.849 1313.32,309.818 C1314.75,311.793 1317.39,312.775 1321.23,312.775 C1323.25,312.775 1325.54,312.402 1328.1,311.658 C1328.84,311.658 1329.32,312.191 1329.54,313.255 L1329.86,323.324 C1330.07,325.349 1329.22,326.63 1327.3,327.159 C1324.96,327.902 1321.6,328.276 1317.23,328.276 C1308.28,328.276 1301.89,326.042 1298.05,321.568 C1294.22,317.09 1292.3,310.272 1292.3,301.11 L1292.3,265.307 L1282.87,265.307" id="Fill-16" fill="#D8206A"></path>
        <path d="M1387.87,247.727 C1396.82,247.727 1403.78,250.579 1408.73,256.28 C1413.69,261.98 1416.16,269.462 1416.16,278.732 L1416.16,322.686 C1416.16,325.349 1414.83,326.681 1412.17,326.681 L1400.98,326.681 C1398.32,326.681 1396.98,325.349 1396.98,322.686 L1396.98,284.487 C1396.98,270.957 1392.24,264.189 1382.76,264.189 C1377.22,264.189 1372.82,266.185 1369.57,270.185 C1366.32,274.179 1364.7,279.052 1364.7,284.807 L1364.7,322.686 C1364.7,325.349 1363.36,326.681 1360.7,326.681 L1349.51,326.681 C1346.85,326.681 1345.52,325.349 1345.52,322.686 L1345.52,209.849 C1345.52,207.185 1346.85,205.854 1349.51,205.854 L1360.7,205.854 C1363.36,205.854 1364.7,207.185 1364.7,209.849 L1364.86,260.673 C1366.88,256.624 1370.05,253.457 1374.37,251.163 C1378.68,248.874 1383.18,247.727 1387.87,247.727" id="Fill-17" fill="#D8206A"></path>
        <path d="M369.744,52.034 C367.001,53.189 349.462,62.571 347.154,64.376 C344.916,65.675 342.318,68.923 342.533,75.636 C342.75,82.348 346.967,182.797 346.967,182.797 C346.967,182.797 286.785,108.552 283.898,105.297 C281.012,102.042 278.309,102.533 275.055,104.069 C271.8,105.604 256.876,113.895 253.868,115.92 C250.927,117.901 249.834,121.039 252.708,124.833 L373.046,258.484 C373.477,258.962 374.271,258.658 374.271,258.014 L374.271,54.71 C373.374,52.261 371.518,51.46 369.744,52.034" id="Fill-18" fill="#D8206A"></path>
        <path d="M164.319,264.535 L227.912,264.535 C280.64,263.947 357.184,263.115 368.021,262.997 C368.541,262.992 368.769,262.376 368.421,261.99 L235.963,114.883 C229.945,108.445 226.465,112.285 225.306,114.243 C224.144,116.203 214.125,139.069 212.602,142.844 C211.078,146.619 213.835,151.555 215.723,153.297 C217.61,155.039 292.531,230.246 292.531,230.246 C292.531,230.246 185.743,224.667 182.127,224.599 C178.511,224.53 175.646,227.054 174.009,229.715 C172.371,232.376 162.684,254.616 161.319,257.822 C159.998,260.932 163.129,263.742 164.319,264.535" id="Fill-19" fill="#D8206A"></path>
        <path d="M381.284,258.484 L501.623,124.833 C504.497,121.039 503.403,117.901 500.462,115.92 C497.453,113.895 482.53,105.604 479.275,104.069 C476.021,102.533 473.318,102.042 470.432,105.297 C467.545,108.552 407.364,182.797 407.364,182.797 C407.364,182.797 411.58,82.348 411.797,75.636 C412.012,68.923 409.415,65.675 407.176,64.376 C404.867,62.571 387.329,53.189 384.585,52.034 C382.812,51.46 380.956,52.261 380.059,54.71 L380.059,258.014 C380.059,258.658 380.853,258.962 381.284,258.484" id="Fill-20" fill="#D8206A"></path>
        <path d="M386.309,262.997 C397.146,263.115 473.69,263.947 526.418,264.535 L590.011,264.535 C591.201,263.742 594.333,260.932 593.011,257.822 C591.646,254.616 581.958,232.376 580.321,229.715 C578.685,227.054 575.819,224.53 572.203,224.599 C568.587,224.667 461.799,230.246 461.799,230.246 C461.799,230.246 536.72,155.039 538.607,153.297 C540.495,151.555 543.253,146.619 541.728,142.844 C540.205,139.069 530.186,116.203 529.025,114.243 C527.865,112.285 524.385,108.445 518.367,114.883 L385.909,261.99 C385.562,262.376 385.789,262.992 386.309,262.997" id="Fill-21" fill="#D8206A"></path>
        <path d="M373.046,276.372 L252.708,410.022 C249.834,413.816 250.927,416.955 253.868,418.936 C256.876,420.962 271.8,429.253 275.055,430.787 C278.309,432.323 281.012,432.814 283.898,429.559 C286.785,426.305 346.967,352.06 346.967,352.06 C346.967,352.06 342.75,452.509 342.533,459.221 C342.318,465.933 344.916,469.182 347.154,470.48 C349.462,472.285 367.001,481.667 369.744,482.822 C371.518,483.397 373.374,482.596 374.271,480.146 L374.271,276.842 C374.271,276.198 373.477,275.894 373.046,276.372" id="Fill-22" fill="#D8206A"></path>
        <path d="M368.021,271.859 C357.184,271.741 280.64,270.908 227.912,270.321 L164.319,270.321 C163.129,271.114 159.998,273.925 161.319,277.034 C162.684,280.24 172.371,302.48 174.009,305.141 C175.646,307.802 178.511,310.325 182.127,310.258 C185.743,310.189 292.531,304.611 292.531,304.611 C292.531,304.611 217.61,379.817 215.723,381.559 C213.835,383.302 211.078,388.238 212.602,392.013 C214.125,395.787 224.144,418.653 225.306,420.613 C226.465,422.571 229.945,426.411 235.963,419.973 L368.421,272.866 C368.769,272.479 368.541,271.864 368.021,271.859" id="Fill-23" fill="#D8206A"></path>
        <path d="M381.284,276.372 C380.853,275.894 380.059,276.198 380.059,276.842 L380.059,480.146 C380.956,482.596 382.812,483.397 384.585,482.822 C387.329,481.667 404.867,472.285 407.176,470.48 C409.415,469.182 412.012,465.933 411.797,459.221 C411.58,452.509 407.364,352.06 407.364,352.06 C407.364,352.06 467.545,426.305 470.432,429.559 C473.318,432.814 476.021,432.323 479.275,430.787 C482.53,429.253 497.453,420.962 500.462,418.936 C503.403,416.955 504.497,413.816 501.623,410.022 L381.284,276.372" id="Fill-24" fill="#D8206A"></path>
        <path d="M590.011,270.321 L526.418,270.321 C473.69,270.908 397.146,271.741 386.309,271.859 C385.789,271.864 385.562,272.479 385.909,272.866 L518.367,419.973 C524.385,426.411 527.865,422.571 529.025,420.613 C530.186,418.653 540.205,395.787 541.728,392.013 C543.253,388.238 540.495,383.302 538.607,381.559 C536.72,379.817 461.799,304.611 461.799,304.611 C461.799,304.611 568.587,310.189 572.203,310.258 C575.819,310.325 578.685,307.802 580.321,305.141 C581.958,302.48 591.646,280.24 593.011,277.034 C594.333,273.925 591.201,271.114 590.011,270.321" id="Fill-25" fill="#D8206A"></path>
    </g>
</svg>