 <svg version="1.0" xmlns="http://www.w3.org/2000/svg" width="700.000000pt" height="868.000000pt" viewBox="0 0 700.000000 868.000000" preserveAspectRatio="xMidYMid meet">
<metadata>
Created by potrace 1.12, written by Peter Selinger 2001-2015
</metadata>
<g transform="translate(0.000000,868.000000) scale(0.100000,-0.100000)" fill="#000000" stroke="none">
<path d="M1469 8608 c-11 -13 -35 -43 -52 -68 -17 -25 -87 -119 -154 -209
-137 -183 -136 -180 -113 -315 6 -34 19 -132 28 -218 l18 -157 -37 32 c-20 18
-70 62 -111 98 -81 73 -103 84 -142 70 -31 -12 -193 -166 -201 -191 -5 -16 28
-198 91 -504 32 -157 32 -162 -9 -175 -64 -22 -64 -21 -33 -439 l28 -377 -35
-130 c-20 -71 -72 -263 -117 -425 -45 -162 -97 -353 -116 -425 -19 -71 -47
-170 -61 -219 -29 -103 -32 -78 37 -401 28 -132 70 -334 95 -450 24 -115 64
-304 88 -420 24 -115 61 -292 82 -392 l38 -182 -43 -903 c-67 -1421 -76 -1608
-81 -1612 -6 -5 -233 -146 -330 -204 -72 -43 -96 -65 -154 -138 -102 -131
-112 -157 -75 -194 20 -20 33 -20 584 -20 529 0 565 1 570 18 2 9 25 107 51
217 25 110 61 263 80 340 38 164 95 405 165 705 28 118 70 301 95 405 25 105
51 214 57 244 7 30 18 56 23 58 6 2 39 -23 75 -55 l64 -58 -33 -140 c-18 -76
-58 -240 -88 -364 -30 -124 -57 -248 -60 -276 -5 -50 -5 -52 64 -145 140 -191
295 -410 292 -414 -2 -2 -94 -43 -204 -92 -110 -49 -207 -93 -215 -98 -26 -17
-180 -241 -186 -272 -4 -20 1 -36 16 -56 l21 -27 928 0 928 0 98 75 c53 41
103 75 111 75 16 0 412 -68 434 -75 55 -16 428 -75 476 -75 32 0 259 16 504
35 245 18 603 45 795 60 193 14 366 31 385 36 28 8 61 40 160 156 69 80 239
276 377 435 139 159 257 297 263 308 11 21 13 60 4 85 -13 33 -47 34 -190 9
-193 -34 -685 -120 -889 -155 -93 -16 -244 -43 -334 -59 l-163 -30 -307 141
c-168 77 -311 146 -318 152 -12 13 -12 8 -72 1144 l-39 742 -173 243 c-228
321 -260 365 -494 697 -261 368 -260 367 -612 805 -167 207 -303 380 -303 384
0 5 -40 208 -90 451 -49 244 -90 449 -90 456 0 14 77 34 323 85 476 98 477 99
477 149 0 57 31 37 -677 423 l-312 170 -202 254 c-138 174 -210 256 -227 261
-13 3 -45 1 -71 -5 -25 -6 -47 -10 -48 -9 0 1 -125 256 -276 567 -151 310
-284 575 -295 587 -26 29 -65 29 -93 1z m215 -556 c84 -174 190 -390 235 -479
44 -90 81 -166 81 -170 0 -8 -90 -41 -395 -148 -230 -80 -372 -130 -518 -182
-70 -26 -130 -43 -134 -40 -3 4 -25 102 -49 219 -23 117 -49 245 -57 283 l-16
70 42 43 c23 23 44 41 48 40 4 -2 75 -67 158 -145 132 -124 156 -143 185 -143
32 0 57 18 69 51 5 15 -20 308 -43 499 -19 162 -23 149 101 314 107 143 111
147 126 126 8 -11 84 -164 167 -338z m707 -952 c84 -107 159 -206 166 -220 7
-14 29 -99 48 -190 19 -91 54 -257 79 -370 24 -113 65 -302 90 -420 26 -118
48 -222 51 -230 13 -44 74 -354 70 -359 -5 -5 -57 19 -780 350 -242 111 -528
241 -635 289 -333 151 -542 248 -551 257 -10 10 -66 640 -57 648 5 5 383 140
1003 356 110 38 229 80 265 94 61 22 66 22 82 7 9 -10 85 -105 169 -212z m509
-426 c85 -47 231 -126 324 -177 l170 -91 -55 -13 c-30 -7 -116 -26 -192 -43
-76 -16 -176 -40 -223 -51 -46 -12 -87 -20 -89 -17 -5 5 -105 449 -105 466 0
7 3 12 8 12 4 0 77 -39 162 -86z m-1923 -658 c43 -18 272 -122 508 -230 237
-108 663 -303 947 -433 l517 -237 266 -334 c146 -184 263 -337 261 -339 -3 -3
-28 0 -56 6 -28 6 -171 29 -318 51 -147 22 -274 42 -282 45 -8 2 -132 22 -275
45 -143 22 -386 60 -540 85 -154 25 -397 63 -540 85 -143 22 -267 43 -275 45
-8 3 -121 20 -250 40 -234 35 -339 53 -352 61 -4 3 -3 17 2 32 8 25 31 111
186 692 30 113 64 234 74 270 10 36 23 84 30 108 6 23 12 42 14 42 3 0 40 -15
83 -34z m-190 -1275 c98 -16 257 -42 353 -57 426 -66 515 -81 513 -90 -2 -8
-138 -237 -586 -986 -95 -157 -173 -285 -176 -283 -4 4 -13 45 -76 340 -105
496 -138 651 -175 830 -22 105 -44 205 -50 224 -9 34 -6 51 10 51 5 0 89 -13
187 -29z m1313 -215 c118 -19 283 -46 365 -59 300 -50 415 -69 658 -107 267
-43 408 -68 415 -75 6 -5 6 -6 -696 -980 -579 -803 -829 -1151 -861 -1197 -14
-21 -29 -37 -32 -38 -3 0 -53 44 -112 98 -95 87 -326 335 -672 721 -193 215
-205 229 -205 236 0 6 131 226 340 575 48 80 178 298 290 485 111 187 209 350
217 363 11 18 20 22 46 17 18 -3 129 -21 247 -39z m1801 -648 c128 -183 298
-425 377 -538 80 -113 153 -217 164 -232 l18 -26 -92 -65 c-763 -529 -1221
-846 -1338 -927 -167 -115 -852 -590 -1013 -703 -70 -49 -130 -87 -133 -84 -3
3 1 36 10 74 9 37 34 147 56 243 79 346 18 236 509 925 239 336 525 736 635
890 111 154 219 306 241 337 159 227 320 446 326 442 4 -2 112 -154 240 -336z
m-2845 -1083 c65 -72 214 -235 331 -362 l212 -231 -192 -188 c-468 -462 -534
-524 -546 -524 -11 0 -12 13 -7 63 5 49 66 1291 66 1360 0 10 4 17 8 15 5 -1
62 -62 128 -133z m3478 -432 c16 -313 35 -665 42 -783 7 -118 13 -252 13 -297
l1 -81 -727 -367 c-401 -202 -849 -429 -997 -504 l-268 -136 -76 80 c-225 238
-310 341 -476 576 -97 137 -176 252 -176 256 1 5 58 47 128 95 70 48 201 138
292 202 91 63 210 146 265 184 55 38 199 138 320 222 121 85 266 186 322 224
138 95 772 536 1058 735 127 88 235 160 240 161 7 0 21 -207 39 -567z m-2990
-525 c-67 -288 -116 -496 -149 -633 -18 -77 -52 -221 -75 -320 -23 -99 -59
-252 -80 -340 -21 -88 -44 -185 -50 -215 -7 -30 -15 -60 -19 -67 -4 -7 -71 49
-176 148 -93 88 -173 166 -177 172 -3 7 0 165 8 352 l14 340 108 105 c102 100
626 600 628 600 1 0 -13 -64 -32 -142z m3393 -889 c142 -67 262 -125 266 -129
12 -11 -776 -640 -801 -640 -10 0 -95 13 -188 29 -535 93 -536 93 -523 105 2
2 69 54 149 116 137 106 232 180 648 505 96 74 178 135 182 135 4 0 124 -55
267 -121z m1742 24 c-8 -10 -81 -95 -164 -189 -82 -94 -204 -232 -269 -307
-65 -75 -121 -137 -123 -137 -3 0 -59 42 -125 93 -465 357 -478 367 -450 367
12 0 569 94 892 150 266 46 256 45 239 23z m-2669 -226 c-15 -14 -79 -63 -435
-337 -110 -85 -222 -171 -249 -192 l-49 -38 -195 0 c-116 0 -192 4 -187 9 10
9 1115 570 1125 571 2 0 -2 -6 -10 -13z m1527 -134 c98 -76 227 -174 285 -218
59 -44 107 -83 108 -87 0 -5 -10 -8 -22 -8 -27 0 -554 -41 -908 -70 -278 -22
-324 -24 -315 -11 3 5 63 54 133 109 70 55 219 172 332 261 113 88 206 161
207 161 1 0 82 -62 180 -137z m-3263 -274 c60 -65 115 -128 123 -139 14 -20
13 -20 -361 -20 -207 0 -376 3 -376 8 0 4 16 27 34 52 32 42 47 51 242 136
115 50 214 89 219 86 6 -2 59 -57 119 -123z m-1392 -16 l151 -138 -358 -3
c-197 -1 -361 0 -364 3 -12 13 66 72 224 169 94 57 176 104 183 105 7 0 81
-61 164 -136z"></path>
</g>
</svg>